<svg width="102" height="32" viewBox="0 0 102 32" fill="none" xmlns="http://www.w3.org/2000/svg">
<g clip-path="url(#clip0_150_997)">
<path d="M5.3285 18.2286C5.1285 17.3714 5.01422 16.4571 5.01422 15.5429C5.01422 8.94286 10.3571 3.6 16.9571 3.6C23.5571 3.6 28.8999 8.94286 28.8999 15.5429C28.8999 22.1429 23.5571 27.4571 16.9571 27.4571C15.5285 27.4571 14.1285 27.2 12.8714 26.7429C14.4714 27.4286 16.2142 27.8 18.0714 27.8C25.3856 27.8 31.3285 21.8571 31.3285 14.5429C31.3285 7.22857 25.3856 1.31429 18.0714 1.31429C10.7571 1.31429 4.81422 7.22857 4.81422 14.5714C4.81422 15.8286 5.01422 17.0571 5.3285 18.2286Z" fill="#009698"/>
<path d="M31.5 19.3714C29.5857 25.0857 24.1857 29.2286 17.8143 29.2286C9.84282 29.2286 3.41425 22.7714 3.41425 14.8286C3.41425 8.6 7.35711 3.28571 12.9 1.28571C14.3571 0.6 15.9571 0.171429 17.6428 0.0285714C17.2714 0.0285714 16.9 0 16.5 0C7.6714 0 0.499969 7.17143 0.499969 16C0.499969 24.8286 7.6714 32 16.5 32C25.3285 32 32.5 24.8286 32.5 16C32.5 15.9429 32.5 15.8857 32.5 15.8286C32.3285 17.0857 31.9857 18.2571 31.5 19.3714Z" fill="#E86D6D"/>
<path d="M16.4999 17.5714C17.3678 17.5714 18.0714 16.8679 18.0714 16C18.0714 15.1321 17.3678 14.4286 16.4999 14.4286C15.6321 14.4286 14.9285 15.1321 14.9285 16C14.9285 16.8679 15.6321 17.5714 16.4999 17.5714Z" fill="#E86D6D"/>
<path d="M22.1571 15.5143L22.3285 14.6857L21.7571 14L18.2428 14.8286C18.4714 15.1714 18.5856 15.5714 18.5856 16C18.5856 16.1143 18.5856 16.2571 18.5571 16.3714L22.1571 15.5143Z" fill="#009698"/>
<path d="M11.2713 7.74285L10.4713 7.88571L10.0142 8.71428L14.5571 15.2C14.7571 14.6857 15.1856 14.2857 15.6999 14.0571L11.2713 7.74285Z" fill="#009698"/>
<path d="M48.9499 24H45.4833V11.6757H40.4999V8.27027H53.9333V11.6757H48.9499V24Z" fill="#009698"/>
<path d="M74.1916 24H70.7249V8.27027H74.1916V24Z" fill="#009698"/>
<path d="M80.9624 24H77.4958V8H77.7124L85.9458 15.5135L94.1791 8H94.3958V24H90.9291V15.3514L86.0541 19.7838H85.8374L80.9624 15.3514V24Z" fill="#009698"/>
<path d="M101.167 24H97.6999V8.27027H101.167V24Z" fill="#009698"/>
<path d="M61.0291 8H60.8124L52.8499 23.7838L52.9583 24H56.4249L57.2374 22.2703L60.9208 14.0541L62.7083 18.0541L64.3333 21.6757L64.4958 22.0541L65.3624 24H68.9374L69.0458 23.7838L61.0291 8Z" fill="#009698"/>
</g>
<defs>
<clipPath id="clip0_150_997">
<rect width="100.667" height="32" fill="white" transform="translate(0.5)"/>
</clipPath>
</defs>
</svg>
