<svg width="48" height="48" viewBox="0 0 48 48" fill="none" xmlns="http://www.w3.org/2000/svg">
<path d="M7.18955 27.3429C6.89176 26.0572 6.72159 24.6857 6.72159 23.3143C6.72159 13.4143 14.6769 5.40001 24.5042 5.40001C34.3314 5.40001 42.2867 13.4143 42.2867 23.3143C42.2867 33.2143 34.3314 41.1857 24.5042 41.1857C22.3771 41.1857 20.2925 40.8 18.4206 40.1143C20.803 41.1429 23.3981 41.7 26.1633 41.7C37.0541 41.7 45.9028 32.7857 45.9028 21.8143C45.9028 10.8429 37.0541 1.97144 26.1633 1.97144C15.2725 1.97144 6.42379 10.8429 6.42379 21.8572C6.42379 23.7429 6.72159 25.5857 7.18955 27.3429Z" fill="#009698"/>
<path d="M46.1581 29.0571C43.3078 37.6286 35.2673 43.8429 25.7805 43.8429C13.9112 43.8429 4.33929 34.1571 4.33929 22.2429C4.33929 12.9 10.2101 4.92857 18.4632 1.92857C20.6329 0.9 23.0152 0.257143 25.5252 0.0428571C24.9722 0.0428571 24.4191 0 23.8235 0C10.678 0 0 10.7571 0 24C0 37.2429 10.678 48 23.8235 48C36.969 48 47.6471 37.2429 47.6471 24C47.6471 23.9143 47.6471 23.8286 47.6471 23.7429C47.3918 25.6286 46.8813 27.3857 46.1581 29.0571Z" fill="#E86D6D"/>
<path d="M23.8235 26.3572C25.1157 26.3572 26.1633 25.3018 26.1633 24C26.1633 22.6982 25.1157 21.6429 23.8235 21.6429C22.5312 21.6429 21.4837 22.6982 21.4837 24C21.4837 25.3018 22.5312 26.3572 23.8235 26.3572Z" fill="#E86D6D"/>
<path d="M32.2468 23.2714L32.5021 22.0286L31.6512 21L26.4185 22.2429C26.7589 22.7571 26.929 23.3571 26.929 24C26.929 24.1714 26.929 24.3857 26.8865 24.5571L32.2468 23.2714Z" fill="#009698"/>
<path d="M16.0383 11.6143L14.8471 11.8286L14.1664 13.0714L20.9306 22.8C21.2284 22.0286 21.8665 21.4286 22.6323 21.0857L16.0383 11.6143Z" fill="#009698"/>
</svg>
